<?xml version="1.0" standalone="no"?>
<!DOCTYPE svg PUBLIC "-//W3C//DTD SVG 20010904//EN"
 "http://www.w3.org/TR/2001/REC-SVG-20010904/DTD/svg10.dtd">
<svg version="1.0" xmlns="http://www.w3.org/2000/svg"
 width="225.000000pt" height="225.000000pt" viewBox="0 0 225.000000 225.000000"
 preserveAspectRatio="xMidYMid meet">

<g transform="translate(0.000000,225.000000) scale(0.100000,-0.100000)"
fill="#000000" stroke="none">
<path d="M81 2232 c-19 -9 -44 -30 -55 -45 -21 -28 -21 -32 -21 -1062 0 -1030
0 -1034 21 -1062 11 -15 36 -36 55 -45 32 -17 102 -18 1044 -18 942 0 1012 1
1044 18 19 9 44 30 55 45 21 28 21 32 21 1062 0 1030 0 1034 -21 1062 -11 15
-36 36 -55 45 -32 17 -102 18 -1044 18 -942 0 -1012 -1 -1044 -18z m1469 -252
c0 -14 -9 -20 -32 -24 -180 -28 -223 -37 -236 -49 -9 -9 -18 -49 -23 -103 -13
-128 -5 -1382 9 -1416 16 -38 58 -57 165 -72 104 -14 117 -19 117 -47 0 -18
-11 -19 -425 -19 -414 0 -425 1 -425 19 0 28 9 31 114 42 51 5 113 15 137 22
77 22 74 -10 71 811 -2 395 -7 729 -12 742 -11 28 -52 41 -185 55 -103 11
-125 20 -125 48 0 15 38 16 425 13 413 -2 425 -3 425 -22z"/>
</g>
</svg>
